# xmcd
#
# Track frame offsets: 
#        150
#        4980
#        25683
#        51338
#        79419
#        107127
#        132408
#        158966
#        182944
#        211573
#
# Disc length: 3217 seconds
#
# Revision: 0
# Processed by: cddbd v1.5.2PL0 Copyright (c) Steve Scherf et al.
# Submitted via: ExactAudioCopy v1.0b3
#
DISCID=840c8f0a
DTITLE=MyGrain - Planetary Breathing
DYEAR=2013
DGENRE=Melodic Death Metal
TTITLE0=Incantation
TTITLE1=Waking Up The Damned
TTITLE2=Ambivalentine
TTITLE3=Black Light Supernova
TTITLE4=Dreamscape
TTITLE5=Rats In The Cradle
TTITLE6=The Ghost In Me
TTITLE7=Mechanimal Instinct
TTITLE8=The Final Skyline
TTITLE9=Planetary Breathing
EXTD=
EXTT0=
EXTT1=
EXTT2=
EXTT3=
EXTT4=
EXTT5=
EXTT6=
EXTT7=
EXTT8=
EXTT9=
PLAYORDER=
